<?xml version="1.0" encoding="UTF-8" standalone="no"?>
<!DOCTYPE svg PUBLIC "-//W3C//DTD SVG 1.1//EN" "http://www.w3.org/Graphics/SVG/1.1/DTD/svg11.dtd">
<svg width="100%" height="100%" viewBox="0 0 1092 893" version="1.1" xmlns="http://www.w3.org/2000/svg" xmlns:xlink="http://www.w3.org/1999/xlink" xml:space="preserve" xmlns:serif="http://www.serif.com/" style="fill-rule:evenodd;clip-rule:evenodd;stroke-linejoin:round;stroke-miterlimit:2;">
    <g transform="matrix(1,0,0,1,-1219.173096,-1690.170043)">
        <g transform="matrix(6.248421,0,0,6.248421,680.727354,-102.481879)">
            <path d="M86.367,295.21C86.367,295.21 91.418,399.006 91.418,406.357C91.418,413.705 93.714,416.461 93.714,416.461C112.085,430.699 149.747,429.779 149.747,429.779C149.747,429.779 187.407,430.699 205.78,416.461C205.78,416.461 208.075,413.705 208.075,406.357C208.075,404.986 208.25,400.27 208.535,393.517L208.535,395.333C208.535,395.333 215.883,387.985 218.181,378.338C220.478,368.696 277.128,329.274 256.301,299.802C244.729,283.424 222.227,295.328 212.83,301.409C213.015,297.519 213.127,295.209 213.127,295.209L213.127,289.699C213.127,289.699 214.505,286.481 209.912,286.942C205.32,287.4 94.174,287.4 89.58,286.942C84.989,286.481 86.367,289.699 86.367,289.699L86.367,295.21ZM211.482,329.427C213.564,327.164 220.091,319.533 220.478,312.203C220.936,303.475 244.358,294.751 248.95,307.608C253.499,320.343 248.119,340.283 209.678,367.87C210.254,355.348 210.903,341.586 211.482,329.427Z" style="fill:rgb(55,55,55);fill-rule:nonzero;"/>
            <path d="M86.367,289.7L86.367,295.21C86.367,295.21 91.418,399.006 91.418,406.357C91.418,413.705 93.714,416.461 93.714,416.461C112.085,430.699 149.747,429.779 149.747,429.779C149.747,429.779 184.677,430.627 203.667,417.966C182.358,420.248 137.038,422.889 133.605,404.582C130.389,387.428 132.537,322.767 134.024,287.274C111.114,287.24 91.456,287.129 89.58,286.942C84.99,286.482 86.367,289.7 86.367,289.7Z" style="fill:rgb(33,33,33);fill-rule:nonzero;"/>
            <path d="M96.236,296.755C97.941,299.304 128.109,299.523 190.91,297.18C190.995,297.193 167.068,295.228 143.238,295.003C119.449,294.469 95.46,295.67 96.236,296.755Z" style="fill:rgb(199,184,166);fill-rule:nonzero;"/>
            <path d="M197.752,334L198,309L188,309L190.227,334L197.752,334Z" style="fill:rgb(199,184,166);fill-rule:nonzero;"/>
            <path d="M191.119,344L197,410L197.653,344L191.119,344Z" style="fill:rgb(199,184,166);fill-rule:nonzero;"/>
        </g>
        <g transform="matrix(0.57429,0,0,0.57429,610.148312,901.942895)">
            <g transform="matrix(766.429448,0,0,766.429448,2154.263264,2410)">
            </g>
            <text x="1174px" y="2410px" style="font-family:'Musk-Medium', 'Musk';font-weight:500;font-size:766.429px;fill:rgb(199,184,166);">GS</text>
        </g>
    </g>
</svg>
